<svg width="150" height="66" viewBox="0 0 150 66" fill="none" xmlns="http://www.w3.org/2000/svg">
<path fill-rule="evenodd" clip-rule="evenodd" d="M102.117 2C98.6619 2 95.6806 2.71115 93.4073 3.26342C88.0297 4.52837 82.9861 6.94414 78.535 10.2531C75.743 12.3526 72.3724 13.4386 68.954 13.4386C67.4703 13.4386 65.9758 13.2335 64.5152 12.8169C63.1916 12.3989 61.8218 12.1953 60.4566 12.1953C59.0314 12.1953 57.6092 12.4174 56.244 12.8555C50.4216 14.7128 50.4954 19.5829 43.8203 23.003C42.1888 23.8499 40.6405 24.1646 39.1245 24.1646C34.6811 24.1646 30.5193 21.4495 25.3664 21.4495C24.2505 21.4495 23.087 21.5776 21.8634 21.8876C10.7002 24.7137 -0.0935641 38.8396 5.5442 48.4302C10.9988 57.7492 18.779 60.4627 25.9882 60.4627C36.0324 60.4627 44.97 55.1962 44.97 55.1962C44.97 55.1962 50.3108 60.3254 56.244 62.5191C57.0829 62.8492 60.1811 64 64.0535 64C65.8357 64 67.7812 63.7563 69.7451 63.076C75.0858 61.2557 75.4198 57.9837 79.9079 57.4268C80.2388 57.3867 80.5465 57.3682 80.839 57.3682C83.5925 57.3682 84.9022 59.0312 90.0321 60.8453C92.7656 61.7925 97.6138 63.4894 102.579 63.4894C105.025 63.4894 107.499 63.0775 109.763 61.9606C114.325 59.693 113.622 56.6447 118.184 55.1962C119.251 54.8506 120.192 54.7226 121.085 54.7226C123.663 54.7226 125.823 55.7932 129.399 55.7932C129.786 55.7932 130.187 55.7808 130.608 55.7531H130.868C137.544 55.1962 143.181 50.4742 144.924 43.9689C146.89 36.7201 145.888 33.226 144.109 31.4782C140.881 28.2819 135.727 31.4782 130.571 27.5383C126.491 24.379 128.197 21.1071 123.82 14.5277C122.67 12.817 118.072 6.08952 109.763 3.26342C107.044 2.33013 104.47 2 102.117 2V2Z" fill="white" fill-opacity="0.1732"/>
<path fill-rule="evenodd" clip-rule="evenodd" d="M102.117 2C98.6619 2 95.6806 2.71115 93.4073 3.26342C88.0297 4.52837 82.9861 6.94414 78.535 10.2531C75.743 12.3526 72.3724 13.4386 68.954 13.4386C67.4703 13.4386 65.9758 13.2335 64.5152 12.8169C63.1916 12.3989 61.8218 12.1953 60.4566 12.1953C59.0314 12.1953 57.6092 12.4174 56.244 12.8555C50.4216 14.7128 50.4954 19.5829 43.8203 23.003C42.1888 23.8499 40.6405 24.1646 39.1245 24.1646C34.6811 24.1646 30.5193 21.4495 25.3664 21.4495C24.2505 21.4495 23.087 21.5776 21.8634 21.8876C10.7002 24.7137 -0.0935641 38.8396 5.5442 48.4302C10.9988 57.7492 18.779 60.4627 25.9882 60.4627C36.0324 60.4627 44.97 55.1962 44.97 55.1962C44.97 55.1962 50.3108 60.3254 56.244 62.5191C57.0829 62.8492 60.1811 64 64.0535 64C65.8357 64 67.7812 63.7563 69.7451 63.076C75.0858 61.2557 75.4198 57.9837 79.9079 57.4268C80.2388 57.3867 80.5465 57.3682 80.839 57.3682C83.5925 57.3682 84.9022 59.0312 90.0321 60.8453C92.7656 61.7925 97.6138 63.4894 102.579 63.4894C105.025 63.4894 107.499 63.0775 109.763 61.9606C114.325 59.693 113.622 56.6447 118.184 55.1962C119.251 54.8506 120.192 54.7226 121.085 54.7226C123.663 54.7226 125.823 55.7932 129.399 55.7932C129.786 55.7932 130.187 55.7808 130.608 55.7531H130.868C137.544 55.1962 143.181 50.4742 144.924 43.9689C146.89 36.7201 145.888 33.226 144.109 31.4782C140.881 28.2819 135.727 31.4782 130.571 27.5383C126.491 24.379 128.197 21.1071 123.82 14.5277C122.67 12.817 118.072 6.08952 109.763 3.26342C107.044 2.33013 104.47 2 102.117 2V2Z" stroke="#0E1956" stroke-width="3" stroke-miterlimit="10" stroke-linejoin="round"/>
<path fill-rule="evenodd" clip-rule="evenodd" d="M102.117 2C98.6619 2 95.6806 2.71115 93.4073 3.26342C88.0297 4.52837 82.9861 6.94414 78.535 10.2531C75.743 12.3526 72.3724 13.4386 68.954 13.4386C67.4703 13.4386 65.9758 13.2335 64.5152 12.8169C63.1916 12.3989 61.8218 12.1953 60.4566 12.1953C59.0314 12.1953 57.6092 12.4174 56.244 12.8555C50.4216 14.7128 50.4954 19.5829 43.8203 23.003C42.1888 23.8499 40.6405 24.1646 39.1245 24.1646C34.6811 24.1646 30.5193 21.4495 25.3664 21.4495C24.2505 21.4495 23.087 21.5776 21.8634 21.8876C10.7002 24.7137 -0.0935641 38.8396 5.5442 48.4302C10.9988 57.7492 18.779 60.4627 25.9882 60.4627C36.0324 60.4627 44.97 55.1962 44.97 55.1962C44.97 55.1962 50.3108 60.3254 56.244 62.5191C57.0829 62.8492 60.1811 64 64.0535 64C65.8357 64 67.7812 63.7563 69.7451 63.076C75.0858 61.2557 75.4198 57.9837 79.9079 57.4268C80.2388 57.3867 80.5465 57.3682 80.839 57.3682C83.5925 57.3682 84.9022 59.0312 90.0321 60.8453C92.7656 61.7925 97.6138 63.4894 102.579 63.4894C105.025 63.4894 107.499 63.0775 109.763 61.9606C114.325 59.693 113.622 56.6447 118.184 55.1962C119.251 54.8506 120.192 54.7226 121.085 54.7226C123.663 54.7226 125.823 55.7932 129.399 55.7932C129.786 55.7932 130.187 55.7808 130.608 55.7531H130.868C137.544 55.1962 143.181 50.4742 144.924 43.9689C146.89 36.7201 145.888 33.226 144.109 31.4782C140.881 28.2819 135.727 31.4782 130.571 27.5383C126.491 24.379 128.197 21.1071 123.82 14.5277C122.67 12.817 118.072 6.08952 109.763 3.26342C107.044 2.33013 104.47 2 102.117 2V2Z" fill="white" fill-opacity="0.1732"/>
</svg>
