<svg width="381" height="82" viewBox="0 0 381 82" fill="none" xmlns="http://www.w3.org/2000/svg">
<path d="M378.889 44.8891C381.037 42.7412 381.037 39.2588 378.889 37.1109L343.887 2.1091C341.739 -0.0387864 338.257 -0.0387861 336.109 2.1091C333.961 4.25698 333.961 7.73939 336.109 9.88727L367.222 41L336.109 72.1127C333.961 74.2606 333.961 77.743 336.109 79.8908C338.257 82.0387 341.739 82.0387 343.887 79.8908L378.889 44.8891ZM4.80825e-07 46.5L375 46.5L375 35.5L-4.80825e-07 35.5L4.80825e-07 46.5Z" fill="url(#paint0_linear_324_41285)"/>
<defs>
<linearGradient id="paint0_linear_324_41285" x1="4.37114e-08" y1="41.5" x2="375" y2="41.5" gradientUnits="userSpaceOnUse">
<stop stop-color="#C84E89"/>
<stop offset="1" stop-color="#F15F79"/>
</linearGradient>
</defs>
</svg>
