<svg width="64" height="64" viewBox="0 0 64 64" fill="none" xmlns="http://www.w3.org/2000/svg">
<path d="M50.8571 8H13.1429C11.7789 8 10.4708 8.54184 9.50631 9.50631C8.54184 10.4708 8 11.7789 8 13.1429V50.8571C8 52.2211 8.54184 53.5292 9.50631 54.4937C10.4708 55.4582 11.7789 56 13.1429 56H50.8571C52.2211 56 53.5292 55.4582 54.4937 54.4937C55.4582 53.5292 56 52.2211 56 50.8571V13.1429C56 11.7789 55.4582 10.4708 54.4937 9.50631C53.5292 8.54184 52.2211 8 50.8571 8V8ZM49.1011 40.9325L47.4939 47.8968C47.4123 48.2509 47.2131 48.5668 46.9288 48.7931C46.6445 49.0194 46.2919 49.1427 45.9286 49.1429C28.7857 49.1429 14.8571 35.2454 14.8571 18.0714C14.8699 17.7115 14.9978 17.3651 15.2222 17.0834C15.4465 16.8016 15.7553 16.5992 16.1032 16.5061L23.0675 14.8989C23.1863 14.8738 23.3072 14.8598 23.4286 14.8571C23.7394 14.8728 24.0403 14.9714 24.3001 15.1427C24.5599 15.3139 24.7691 15.5516 24.9061 15.8311L28.1204 23.3311C28.1991 23.5333 28.2429 23.7474 28.25 23.9643C28.2238 24.44 28.0123 24.8866 27.6607 25.2082L23.6011 28.5296C26.0609 33.7431 30.2569 37.9391 35.4704 40.3989L38.7918 36.3393C39.1134 35.9877 39.56 35.7762 40.0357 35.75C40.2526 35.757 40.4667 35.8008 40.6689 35.8796L48.1689 39.0939C48.4485 39.2307 48.6863 39.4399 48.8576 39.6997C49.0289 39.9596 49.1274 40.2606 49.1429 40.5714C49.1407 40.6929 49.1267 40.8138 49.1011 40.9325Z" fill="white"/>
</svg>
