<svg width="64" height="64" viewBox="0 0 64 64" fill="none" xmlns="http://www.w3.org/2000/svg">
<path d="M53.3333 8H10.6667C9.95942 8 9.28115 8.28095 8.78105 8.78105C8.28095 9.28115 8 9.95942 8 10.6667V53.3333C8 54.0406 8.28095 54.7189 8.78105 55.219C9.28115 55.7191 9.95942 56 10.6667 56H33.64V37.44H27.4053V30.1733H33.64V24.84C33.64 18.64 37.4267 15.2613 42.9733 15.2613C44.8373 15.256 46.704 15.352 48.56 15.5467V22H44.7333C41.7253 22 41.1387 23.4347 41.1387 25.5333V30.16H48.3307L47.3973 37.4267H41.136V56H53.3333C54.0406 56 54.7189 55.7191 55.219 55.219C55.7191 54.7189 56 54.0406 56 53.3333V10.6667C56 9.95942 55.7191 9.28115 55.219 8.78105C54.7189 8.28095 54.0406 8 53.3333 8Z" fill="white"/>
</svg>
