<svg width="65" height="64" viewBox="0 0 65 64" fill="none" xmlns="http://www.w3.org/2000/svg">
<path d="M31.8295 27C29.2795 22.4688 26.5357 18.6625 26.1295 18.1063C21.8295 20.1375 18.6107 24.1 17.617 28.8687C18.3045 28.8813 24.642 28.9125 31.8295 27ZM35.9857 28.3625C36.342 29.0937 36.6857 29.8375 37.0045 30.5875C37.117 30.85 37.2295 31.1125 37.3357 31.3813C42.4482 30.7375 47.5357 31.7688 48.042 31.875C48.0107 28.2438 46.7107 24.9125 44.5732 22.2938C44.242 22.7375 41.667 26.0437 35.9857 28.3625ZM55.667 7H9.66699C8.56074 7 7.66699 7.89375 7.66699 9V55C7.66699 56.1063 8.56074 57 9.66699 57H55.667C56.7732 57 57.667 56.1063 57.667 55V9C57.667 7.89375 56.7732 7 55.667 7ZM32.667 50C22.742 50 14.667 41.925 14.667 32C14.667 22.075 22.742 14 32.667 14C42.592 14 50.667 22.075 50.667 32C50.667 41.925 42.592 50 32.667 50ZM38.2732 33.8063C40.2857 39.3313 41.1045 43.8312 41.2607 44.7687C44.7107 42.4375 47.167 38.7438 47.8482 34.4625C47.3232 34.3 43.092 33.0375 38.2732 33.8063ZM33.742 32.1562C33.942 32.0938 34.142 32.0313 34.3482 31.975C33.9607 31.1 33.542 30.225 33.1045 29.3687C25.4295 31.6687 17.9732 31.5688 17.3045 31.5562C17.2982 31.7125 17.2982 31.8688 17.2982 32.025C17.2982 35.975 18.792 39.5813 21.2482 42.3063C21.592 41.7063 25.8107 34.7188 33.742 32.1562ZM42.8607 20.5187C41.0101 18.8722 38.7879 17.6987 36.3845 17.0989C33.981 16.4992 31.468 16.491 29.0607 17.075C29.4857 17.6438 32.2795 21.4438 34.7982 26.075C40.267 24.025 42.5795 20.9125 42.8607 20.5187ZM35.292 34.55C26.6232 37.5687 23.5045 43.5875 23.2295 44.15C25.8357 46.1813 29.1107 47.3937 32.667 47.3937C34.7982 47.3937 36.8295 46.9625 38.6732 46.175C38.442 44.825 37.5545 40.125 35.392 34.5125L35.292 34.55Z" fill="white"/>
</svg>
