<svg width="65" height="64" viewBox="0 0 65 64" fill="none" xmlns="http://www.w3.org/2000/svg">
<path d="M53.6663 8H10.9997C10.2924 8 9.61415 8.28095 9.11406 8.78105C8.61396 9.28115 8.33301 9.95942 8.33301 10.6667V53.3333C8.33301 54.0406 8.61396 54.7189 9.11406 55.219C9.61415 55.7191 10.2924 56 10.9997 56H53.6663C54.3736 56 55.0519 55.7191 55.552 55.219C56.0521 54.7189 56.333 54.0406 56.333 53.3333V10.6667C56.333 9.95942 56.0521 9.28115 55.552 8.78105C55.0519 8.28095 54.3736 8 53.6663 8ZM22.5703 48.8987H15.445V25.992H22.5703V48.8987ZM19.0077 22.864C17.9129 22.864 16.8629 22.4291 16.0887 21.6549C15.3146 20.8808 14.8797 19.8308 14.8797 18.736C14.8797 17.6412 15.3146 16.5912 16.0887 15.8171C16.8629 15.0429 17.9129 14.608 19.0077 14.608C20.1025 14.608 21.1525 15.0429 21.9266 15.8171C22.7008 16.5912 23.1357 17.6412 23.1357 18.736C23.1357 19.8308 22.7008 20.8808 21.9266 21.6549C21.1525 22.4291 20.1025 22.864 19.0077 22.864ZM49.2343 48.8987H42.117V37.76C42.117 35.104 42.069 31.688 38.4157 31.688C34.709 31.688 34.1463 34.584 34.1463 37.5733V48.9013H27.0343V25.9947H33.861V29.1253H33.9597C34.9063 27.3253 37.2317 25.4267 40.6903 25.4267C47.901 25.4267 49.2317 30.168 49.2317 36.3387L49.2343 48.8987Z" fill="white"/>
</svg>
