<svg width="85" height="99" viewBox="0 0 85 99" fill="none" xmlns="http://www.w3.org/2000/svg">
<path d="M40.6626 43.6849C40.6626 45.0032 40.4287 45.9813 39.9609 46.6192C39.4931 47.2571 38.7489 47.8737 37.7283 48.4691C37.1329 48.8093 36.3887 49.1495 35.4956 49.4897C34.6026 49.7874 33.6245 50.0425 32.5613 50.2552C31.4982 50.5103 30.3713 50.7017 29.1805 50.8293C28.0323 50.9568 26.8841 51.0206 25.7359 51.0206C22.6741 51.0206 19.8035 50.6166 17.1244 49.8086C14.4453 48.9581 12.1063 47.7036 10.1076 46.0451C8.15142 44.344 6.59922 42.239 5.45101 39.73C4.30281 37.2209 3.72871 34.3079 3.72871 30.9909C3.72871 27.5037 4.34534 24.4631 5.57859 21.869C6.85437 19.275 8.51289 17.1274 10.5541 15.4263C12.6379 13.6828 14.9981 12.3857 17.6347 11.5352C20.3139 10.6847 23.0568 10.2594 25.8635 10.2594C29.9035 10.2594 33.0929 10.9186 35.4319 12.2369C37.8133 13.5127 39.004 15.1925 39.004 17.2762C39.004 18.3819 38.7276 19.3387 38.1748 20.1467C37.6219 20.9547 36.9841 21.5926 36.2611 22.0604C35.198 21.4225 33.8584 20.8059 32.2424 20.2105C30.6689 19.5726 28.8828 19.2537 26.8841 19.2537C23.3119 19.2537 20.4627 20.2743 18.3364 22.3156C16.2526 24.3568 15.2107 27.1848 15.2107 30.7995C15.2107 32.7557 15.4872 34.4567 16.04 35.9026C16.6354 37.306 17.4221 38.4754 18.4002 39.411C19.3783 40.3041 20.5052 40.9845 21.781 41.4523C23.0568 41.8775 24.4176 42.0902 25.8635 42.0902C26.7991 42.0902 27.6283 42.0051 28.3513 41.835C29.0742 41.6649 29.6271 41.4735 30.0098 41.2609V35.2647H23.1844C22.9292 34.7969 22.6741 34.1803 22.4189 33.4149C22.2063 32.6494 22.0999 31.8414 22.0999 30.9909C22.0999 29.4599 22.4402 28.3543 23.1206 27.6738C23.8435 26.9934 24.7578 26.6532 25.8635 26.6532H36.6438C37.9196 26.6532 38.8977 27.0147 39.5781 27.7376C40.3011 28.418 40.6626 29.3961 40.6626 30.6719V43.6849Z" fill="black"/>
<path d="M3.39502 87.1875V56.5389C3.39502 52.7389 4.54746 49.6346 6.85234 47.2259C9.15721 44.8172 12.1473 43.6129 15.8227 43.6129C20.1832 43.6129 23.5367 45.6167 25.8831 49.6242C27.3159 47.4647 28.8525 45.9281 30.4929 45.0145C32.1333 44.0801 34.1579 43.6129 36.5666 43.6129C40.3873 43.6129 43.3151 44.8172 45.35 47.2259C47.3849 49.6346 48.4024 53.1023 48.4024 57.629V87.1875H35.7567V59.529C35.7567 58.1585 35.6425 57.2552 35.4141 56.8192C35.2065 56.3624 34.7704 56.134 34.1059 56.134C32.8601 56.134 32.2371 57.193 32.2371 59.3109V87.1875H19.5915V59.529C19.5915 58.1793 19.4772 57.276 19.2488 56.8192C19.0204 56.3624 18.574 56.134 17.9095 56.134C16.6636 56.134 16.0407 57.2656 16.0407 59.529V87.1875H3.39502Z" fill="black"/>
<path d="M35.8911 87.1875V56.5389C35.8911 52.7389 37.0436 49.6346 39.3484 47.2259C41.6533 44.8172 44.6434 43.6129 48.3188 43.6129C52.6793 43.6129 56.0328 45.6167 58.3792 49.6242C59.812 47.4647 61.3486 45.9281 62.989 45.0145C64.6294 44.0801 66.654 43.6129 69.0627 43.6129C72.8834 43.6129 75.8112 44.8172 77.8461 47.2259C79.881 49.6346 80.8985 53.1023 80.8985 57.629V87.1875H68.2528V59.529C68.2528 58.1585 68.1386 57.2552 67.9102 56.8192C67.7026 56.3624 67.2665 56.134 66.602 56.134C65.3562 56.134 64.7332 57.193 64.7332 59.3109V87.1875H52.0875V59.529C52.0875 58.1793 51.9733 57.276 51.7449 56.8192C51.5165 56.3624 51.0701 56.134 50.4056 56.134C49.1597 56.134 48.5368 57.2656 48.5368 59.529V87.1875H35.8911Z" fill="black"/>
</svg>
