<svg width="89" height="59" viewBox="0 0 89 59" fill="none" xmlns="http://www.w3.org/2000/svg">
<path d="M44.42 28.9481L44.0686 28.5923L43.7083 28.9481L44.0686 29.3039L44.42 28.9481ZM57.2997 16.2303L57.651 15.8745L57.2997 15.5277L56.9484 15.8745L57.2997 16.2303ZM70.1794 28.9481L70.5307 29.3039L70.891 28.9481L70.5307 28.5923L70.1794 28.9481ZM57.2997 41.6658L56.9484 42.0216L57.2997 42.3685L57.651 42.0216L57.2997 41.6658ZM18.7344 28.9481L18.3831 28.5923L18.0228 28.9481L18.3831 29.3039L18.7344 28.9481ZM31.6141 16.2303L31.9654 15.8745L31.6141 15.5277L31.2628 15.8745L31.6141 16.2303ZM44.4939 28.9481L44.8452 29.3039L45.2055 28.9481L44.8452 28.5923L44.4939 28.9481ZM31.6141 41.6658L31.2628 42.0216L31.6141 42.3685L31.9654 42.0216L31.6141 41.6658ZM31.5772 36.0075L37.1647 37.4612L35.6299 31.8954L31.5772 36.0075ZM57.231 36.094L62.8602 37.3766L61.1564 31.8602L57.231 36.094ZM64.7685 28.6565H65.2685H64.7685ZM49.7072 29.1122L48.8264 34.8181L54.2082 32.7279L49.7072 29.1122ZM57.678 36.096L57.6487 35.5969L57.678 36.096ZM52.3433 34.343L52.6646 33.9598L52.3433 34.343ZM64.746 28.9787L66.2118 23.3944L60.6427 24.9171L64.746 28.9787ZM57.5425 21.2257L57.5639 20.7261L57.5425 21.2257ZM31.6128 21.1483L26.0253 19.6946L27.5601 25.2604L31.6128 21.1483ZM70.4613 28.9481L70.1099 28.5923L69.7496 28.9481L70.1099 29.3039L70.4613 28.9481ZM73.0398 26.402L73.3911 26.0462L73.0398 25.6993L72.6885 26.0462L73.0398 26.402ZM75.6183 28.9481L75.9696 29.3039L76.33 28.9481L75.9696 28.5923L75.6183 28.9481ZM73.0398 31.4942L72.6885 31.85L73.0398 32.1969L73.3911 31.85L73.0398 31.4942ZM41.8941 26.3993L41.5428 26.0435L41.1825 26.3993L41.5428 26.755L41.8941 26.3993ZM44.4726 23.8531L44.8239 23.4974L44.4726 23.1505L44.1213 23.4974L44.4726 23.8531ZM47.0512 26.3993L47.4025 26.755L47.7628 26.3993L47.4025 26.0435L47.0512 26.3993ZM44.4726 28.9454L44.1213 29.3012L44.4726 29.648L44.8239 29.3012L44.4726 28.9454ZM41.8941 31.528L41.5428 31.1722L41.1825 31.528L41.5428 31.8837L41.8941 31.528ZM44.4726 28.9819L44.8239 28.6261L44.4726 28.2792L44.1213 28.6261L44.4726 28.9819ZM47.0512 31.528L47.4025 31.8837L47.7628 31.528L47.4025 31.1722L47.0512 31.528ZM44.4726 34.0741L44.1213 34.4299L44.4726 34.7768L44.8239 34.4299L44.4726 34.0741ZM13.2914 28.9481L12.94 28.5923L12.5797 28.9481L12.94 29.3039L13.2914 28.9481ZM15.8699 26.402L16.2212 26.0462L15.8699 25.6993L15.5186 26.0462L15.8699 26.402ZM18.4484 28.9481L18.7997 29.3039L19.1601 28.9481L18.7997 28.5923L18.4484 28.9481ZM15.8699 31.4942L15.5186 31.85L15.8699 32.1969L16.2212 31.85L15.8699 31.4942ZM44.5623 28.4819C44.2861 28.4819 44.0623 28.7057 44.0623 28.9819C44.0623 29.258 44.2861 29.4819 44.5623 29.4819V28.4819ZM70.0343 29.4819C70.3105 29.4819 70.5343 29.258 70.5343 28.9819C70.5343 28.7057 70.3105 28.4819 70.0343 28.4819V29.4819ZM56.7983 41.5577C56.7983 41.8339 57.0222 42.0577 57.2983 42.0577C57.5744 42.0577 57.7983 41.8339 57.7983 41.5577H56.7983ZM57.7983 28.9819C57.7983 28.7057 57.5744 28.4819 57.2983 28.4819C57.0222 28.4819 56.7983 28.7057 56.7983 28.9819H57.7983ZM31.1128 41.5577C31.1128 41.8339 31.3366 42.0577 31.6128 42.0577C31.8889 42.0577 32.1128 41.8339 32.1128 41.5577H31.1128ZM32.1128 16.406C32.1128 16.1298 31.8889 15.906 31.6128 15.906C31.3366 15.906 31.1128 16.1298 31.1128 16.406H32.1128ZM57.2271 16.2303L55.0032 10.9024L51.501 15.4924L57.2271 16.2303ZM44.4909 46.8621V47.3621V46.8621ZM31.7195 41.6631L33.9434 46.9911L37.4456 42.4011L31.7195 41.6631ZM44.5 57.9977L44.4944 58.4977L44.5 57.9977ZM44.7713 29.3039L57.651 16.5861L56.9484 15.8745L44.0686 28.5923L44.7713 29.3039ZM56.9484 16.5861L69.8281 29.3039L70.5307 28.5923L57.651 15.8745L56.9484 16.5861ZM69.8281 28.5923L56.9484 41.31L57.651 42.0216L70.5307 29.3039L69.8281 28.5923ZM57.651 41.31L44.7713 28.5923L44.0686 29.3039L56.9484 42.0216L57.651 41.31ZM19.0857 29.3039L31.9654 16.5861L31.2628 15.8745L18.3831 28.5923L19.0857 29.3039ZM31.2628 16.5861L44.1426 29.3039L44.8452 28.5923L31.9654 15.8745L31.2628 16.5861ZM44.1426 28.5923L31.2628 41.31L31.9654 42.0216L44.8452 29.3039L44.1426 28.5923ZM31.9654 41.31L19.0857 28.5923L18.3831 29.3039L31.2628 42.0216L31.9654 41.31ZM36.1744 35.2388C38.4935 33.833 40.0461 31.3822 40.0461 28.5779H39.0461C39.0461 30.9968 37.708 33.1398 35.656 34.3836L36.1744 35.2388ZM40.0461 28.5779C40.0461 24.1661 36.2209 20.6483 31.5772 20.6483V21.6483C35.7357 21.6483 39.0461 24.7832 39.0461 28.5779H40.0461ZM61.8138 35.1781C63.8992 33.7464 65.2685 31.3605 65.2685 28.6565H64.2685C64.2685 31.0136 63.0762 33.0984 61.2478 34.3537L61.8138 35.1781ZM65.2685 28.6565C65.2685 28.5806 65.2674 28.505 65.2653 28.4296L64.2657 28.4581C64.2675 28.524 64.2685 28.5901 64.2685 28.6565H65.2685ZM65.2653 28.4296C65.1449 24.1991 61.677 20.8063 57.3967 20.7207L57.3767 21.7205C61.1349 21.7956 64.1608 24.772 64.2657 28.4581L65.2653 28.4296ZM57.3967 20.7207C57.3416 20.7196 57.2864 20.719 57.231 20.719V21.719C57.2797 21.719 57.3283 21.7195 57.3767 21.7205L57.3967 20.7207ZM50.9478 33.6219C52.5225 35.5681 54.9988 36.7537 57.7072 36.5951L57.6487 35.5969C55.2727 35.736 53.1038 34.6968 51.7252 32.9929L50.9478 33.6219ZM57.7072 36.5951C58.8175 36.5301 59.863 36.2451 60.802 35.785L60.3619 34.887C59.5404 35.2896 58.6244 35.5397 57.6487 35.5969L57.7072 36.5951ZM60.802 35.785C60.8275 35.7725 60.853 35.7598 60.8784 35.747L60.4289 34.8538C60.4066 34.865 60.3843 34.876 60.3619 34.887L60.802 35.785ZM60.8784 35.747C63.5703 34.3922 65.365 31.5887 65.2652 28.428L64.2657 28.4596C64.3527 31.2129 62.7896 33.6656 60.4289 34.8538L60.8784 35.747ZM65.2652 28.428C65.2628 28.3525 65.2594 28.2768 65.2548 28.2009L64.2566 28.261C64.2606 28.3274 64.2636 28.3936 64.2657 28.4596L65.2652 28.428ZM51.1011 23.5331C48.2231 26.8753 48.637 31.888 52.0221 34.7261L52.6646 33.9598C49.7051 31.4785 49.3459 27.1038 51.8589 24.1856L51.1011 23.5331ZM52.0221 34.7261C54.5482 36.8441 58.0137 37.152 60.802 35.785L60.3618 34.8871C57.9146 36.0868 54.8759 35.8138 52.6646 33.9598L52.0221 34.7261ZM60.8785 35.747C61.7962 35.2849 62.6386 34.6399 63.3469 33.8174L62.5891 33.1649C61.9686 33.8854 61.2317 34.4496 60.4288 34.8538L60.8785 35.747ZM63.978 24.365C62.613 22.2708 60.2733 20.8422 57.5639 20.7261L57.5211 21.7252C59.8979 21.827 61.946 23.0788 63.1402 24.911L63.978 24.365ZM57.5639 20.7261C57.5085 20.7238 57.4533 20.7219 57.3981 20.7207L57.3753 21.7204C57.4238 21.7215 57.4724 21.7231 57.5211 21.7252L57.5639 20.7261ZM57.3981 20.7207C53.0422 20.6213 49.3762 23.9808 49.1856 28.3116L50.1847 28.3556C50.3507 24.5815 53.5499 21.6332 57.3753 21.7204L57.3981 20.7207ZM27.0156 21.917C24.6964 23.3228 23.1438 25.7736 23.1438 28.5779L24.1438 28.5779C24.1438 26.159 25.4819 24.016 27.5339 22.7721L27.0156 21.917ZM23.1438 28.5779C23.1438 32.9897 26.9691 36.5075 31.6128 36.5075V35.5075C27.4542 35.5075 24.1438 32.3726 24.1438 28.5779L23.1438 28.5779ZM70.8126 29.3039L73.3911 26.7577L72.6885 26.0462L70.1099 28.5923L70.8126 29.3039ZM72.6885 26.7577L75.267 29.3039L75.9696 28.5923L73.3911 26.0462L72.6885 26.7577ZM75.267 28.5923L72.6885 31.1384L73.3911 31.85L75.9696 29.3039L75.267 28.5923ZM73.3911 31.1384L70.8126 28.5923L70.1099 29.3039L72.6885 31.85L73.3911 31.1384ZM42.2454 26.755L44.8239 24.2089L44.1213 23.4974L41.5428 26.0435L42.2454 26.755ZM44.1213 24.2089L46.6999 26.755L47.4025 26.0435L44.8239 23.4974L44.1213 24.2089ZM46.6999 26.0435L44.1213 28.5896L44.8239 29.3012L47.4025 26.755L46.6999 26.0435ZM44.8239 28.5896L42.2454 26.0435L41.5428 26.755L44.1213 29.3012L44.8239 28.5896ZM42.2454 31.8837L44.8239 29.3376L44.1213 28.6261L41.5428 31.1722L42.2454 31.8837ZM44.1213 29.3376L46.6999 31.8837L47.4025 31.1722L44.8239 28.6261L44.1213 29.3376ZM46.6999 31.1722L44.1213 33.7183L44.8239 34.4299L47.4025 31.8837L46.6999 31.1722ZM44.8239 33.7183L42.2454 31.1722L41.5428 31.8837L44.1213 34.4299L44.8239 33.7183ZM13.6427 29.3039L16.2212 26.7577L15.5186 26.0462L12.94 28.5923L13.6427 29.3039ZM15.5186 26.7577L18.0971 29.3039L18.7997 28.5923L16.2212 26.0462L15.5186 26.7577ZM18.0971 28.5923L15.5186 31.1384L16.2212 31.85L18.7997 29.3039L18.0971 28.5923ZM16.2212 31.1384L13.6427 28.5923L12.94 29.3039L15.5186 31.85L16.2212 31.1384ZM44.5623 29.4819L70.0343 29.4819V28.4819L44.5623 28.4819V29.4819ZM57.7983 41.5577L57.7983 28.9819H56.7983L56.7983 41.5577H57.7983ZM32.1128 41.5577L32.1128 16.406H31.1128L31.1128 41.5577H32.1128ZM32.0689 16.5536C35.2469 13.4495 39.6226 11.5314 44.4557 11.5314V10.5314C39.3532 10.5314 34.729 12.5575 31.3701 15.8382L32.0689 16.5536ZM44.4557 11.5314C47.7221 11.5314 50.7787 12.4073 53.3981 13.9328L53.9013 13.0687C51.1327 11.4563 47.903 10.5314 44.4557 10.5314V11.5314ZM56.8778 41.3399C53.6998 44.444 49.3241 46.3621 44.4909 46.3621V47.3621C49.5934 47.3621 54.2176 45.336 57.5765 42.0553L56.8778 41.3399ZM44.4909 46.3621C41.2245 46.3621 38.1679 45.4861 35.5486 43.9607L35.0453 44.8248C37.8139 46.4372 41.0437 47.3621 44.4909 47.3621V46.3621ZM1 29.6669C1.4336 29.9158 1.43357 29.9159 1.43362 29.9158C1.43371 29.9156 1.43382 29.9155 1.43402 29.9151C1.43441 29.9144 1.43505 29.9133 1.43595 29.9118C1.43775 29.9087 1.44055 29.9038 1.44436 29.8973C1.45199 29.8841 1.46364 29.8642 1.4793 29.8376C1.51061 29.7845 1.55793 29.7049 1.62107 29.6006C1.74735 29.392 1.93687 29.0846 2.18807 28.6927C2.6905 27.9089 3.43943 26.7871 4.42233 25.4409C6.38873 22.7475 9.28832 19.1602 13.0203 15.5836C20.4928 8.42227 31.2474 1.35505 44.4944 1.50226L44.5056 0.502324C30.8841 0.350949 19.8888 7.61601 12.3284 14.8616C8.54391 18.4885 5.60633 22.1233 3.61468 24.8512C2.61854 26.2156 1.85823 27.3542 1.34616 28.1531C1.09011 28.5526 0.896075 28.8672 0.765609 29.0827C0.700374 29.1905 0.651027 29.2735 0.617762 29.3299C0.60113 29.3582 0.588517 29.3797 0.57995 29.3945C0.575666 29.4018 0.572393 29.4075 0.570134 29.4114C0.569005 29.4134 0.568129 29.4149 0.567507 29.416C0.567196 29.4165 0.56692 29.417 0.566764 29.4172C0.566552 29.4176 0.566403 29.4179 1 29.6669ZM44.4944 1.50226C57.7492 1.64956 68.5087 8.72183 75.9816 15.8093C79.714 19.3493 82.6138 22.8813 84.5801 25.5282C85.563 26.8513 86.3119 27.9522 86.8143 28.7209C87.0655 29.1053 87.255 29.4066 87.3813 29.611C87.4444 29.7132 87.4917 29.7912 87.523 29.8432C87.5387 29.8692 87.5503 29.8887 87.5579 29.9016C87.5617 29.908 87.5645 29.9127 87.5663 29.9158C87.5672 29.9173 87.5679 29.9184 87.5683 29.919C87.5685 29.9194 87.5686 29.9196 87.5687 29.9197C87.5687 29.9198 87.5687 29.9198 88 29.6669C88.4313 29.414 88.4312 29.4137 88.431 29.4133C88.4308 29.4131 88.4305 29.4126 88.4302 29.4121C88.4296 29.411 88.4287 29.4095 88.4276 29.4076C88.4253 29.4038 88.4221 29.3982 88.4178 29.391C88.4092 29.3766 88.3966 29.3554 88.3799 29.3278C88.3467 29.2724 88.2973 29.1911 88.232 29.0855C88.1016 28.8742 87.9075 28.5658 87.6514 28.1739C87.1393 27.3903 86.379 26.2727 85.3829 24.9318C83.3912 22.2508 80.4538 18.6726 76.6697 15.0838C69.1097 7.91363 58.1192 0.653613 44.5056 0.502324L44.4944 1.50226ZM88 29.3331C87.5664 29.0842 87.5664 29.0841 87.5664 29.0842C87.5663 29.0844 87.5662 29.0845 87.566 29.0849C87.5656 29.0856 87.5649 29.0867 87.564 29.0882C87.5623 29.0913 87.5594 29.0962 87.5556 29.1027C87.548 29.1159 87.5364 29.1358 87.5207 29.1624C87.4894 29.2155 87.4421 29.2951 87.3789 29.3994C87.2526 29.608 87.0631 29.9154 86.8119 30.3073C86.3095 31.0911 85.5606 32.2129 84.5777 33.5591C82.6113 36.2525 79.7117 39.8398 75.9797 43.4164C68.5072 50.5777 57.7526 57.645 44.5056 57.4977L44.4944 58.4977C58.1159 58.649 69.1112 51.384 76.6716 44.1384C80.4561 40.5115 83.3937 36.8767 85.3853 34.1488C86.3815 32.7844 87.1418 31.6458 87.6538 30.8469C87.9099 30.4474 88.1039 30.1328 88.2344 29.9173C88.2996 29.8095 88.349 29.7265 88.3822 29.6701C88.3989 29.6418 88.4115 29.6203 88.4201 29.6055C88.4243 29.5982 88.4276 29.5925 88.4299 29.5886C88.431 29.5866 88.4319 29.5851 88.4325 29.5841C88.4328 29.5835 88.4331 29.583 88.4332 29.5828C88.4334 29.5824 88.4336 29.5821 88 29.3331ZM44.5056 57.4977C31.2508 57.3504 20.4913 50.2782 13.0184 43.1907C9.28599 39.6507 6.38623 36.1187 4.41987 33.4718C3.43698 32.1487 2.68806 31.0478 2.18567 30.2791C1.93449 29.8947 1.74499 29.5934 1.61874 29.389C1.55561 29.2868 1.5083 29.2088 1.477 29.1568C1.46135 29.1308 1.4497 29.1112 1.44208 29.0984C1.43827 29.092 1.43547 29.0873 1.43367 29.0842C1.43278 29.0827 1.43213 29.0816 1.43174 29.0809C1.43155 29.0806 1.43144 29.0804 1.43135 29.0803C1.43131 29.0802 1.43133 29.0802 1 29.3331C0.568675 29.586 0.568825 29.5863 0.569039 29.5867C0.569194 29.5869 0.569472 29.5874 0.569783 29.5879C0.570407 29.589 0.571284 29.5905 0.572415 29.5924C0.574677 29.5962 0.577953 29.6018 0.582239 29.609C0.590813 29.6234 0.603431 29.6446 0.620069 29.6722C0.653345 29.7276 0.702704 29.8089 0.767949 29.9145C0.898438 30.1258 1.09249 30.4342 1.34856 30.8261C1.86067 31.6097 2.621 32.7273 3.61714 34.0682C5.60883 36.7492 8.54625 40.3274 12.3303 43.9162C19.8903 51.0864 30.8808 58.3464 44.4944 58.4977L44.5056 57.4977Z" fill="#2E2E2E"/>
</svg>
