<svg width="144" height="97" viewBox="0 0 144 97" fill="none" xmlns="http://www.w3.org/2000/svg">
<path d="M71.8694 47.5801L71.5143 47.228L71.1651 47.5801L71.5143 47.9322L71.8694 47.5801ZM92.8914 26.3839L93.2464 26.0318L92.8914 25.6738L92.5364 26.0318L92.8914 26.3839ZM113.914 47.5801L114.269 47.9322L114.618 47.5801L114.269 47.228L113.914 47.5801ZM92.8914 68.7764L92.5364 69.1285L92.8914 69.4864L93.2464 69.1285L92.8914 68.7764ZM29.9458 47.5801L29.5908 47.228L29.2416 47.5801L29.5908 47.9322L29.9458 47.5801ZM50.9679 26.3839L51.3229 26.0318L50.9679 25.6738L50.6129 26.0318L50.9679 26.3839ZM71.99 47.5801L72.345 47.9322L72.6942 47.5801L72.345 47.228L71.99 47.5801ZM50.9679 68.7764L50.6129 69.1285L50.9679 69.4864L51.3229 69.1285L50.9679 68.7764ZM50.9076 59.3458L56.3142 61.3712L55.3649 55.6762L50.9076 59.3458ZM92.7793 59.49L98.2241 61.4103L97.1648 55.7348L92.7793 59.49ZM105.082 47.0942L105.582 47.0942L105.082 47.0942ZM80.499 47.8537L78.8802 53.3956L84.489 52.0266L80.499 47.8537ZM93.5089 59.4933L93.479 58.9942L93.479 58.9942L93.5089 59.4933ZM84.8018 56.5717L85.127 56.1918L85.127 56.1918L84.8018 56.5717ZM105.045 47.6312L107.22 42.283L101.501 43.0736L105.045 47.6312ZM93.2877 34.7095L93.3096 34.2099L93.3096 34.2099L93.2877 34.7095ZM50.9657 34.5805L45.5591 32.5551L46.5084 38.2501L50.9657 34.5805ZM114.374 47.5801L114.019 47.228L113.669 47.5801L114.019 47.9322L114.374 47.5801ZM118.582 43.3366L118.937 42.9845L118.582 42.6266L118.227 42.9845L118.582 43.3366ZM122.791 47.5801L123.146 47.9322L123.495 47.5801L123.146 47.228L122.791 47.5801ZM118.582 51.8236L118.227 52.1757L118.582 52.5337L118.937 52.1757L118.582 51.8236ZM67.7467 43.3321L67.3917 42.98L67.0425 43.3321L67.3917 43.6842L67.7467 43.3321ZM71.9553 39.0886L72.3103 38.7365L71.9553 38.3785L71.6003 38.7365L71.9553 39.0886ZM76.164 43.3321L76.519 43.6842L76.8682 43.3321L76.519 42.98L76.164 43.3321ZM71.9553 47.5756L71.6003 47.9277L71.9553 48.2857L72.3103 47.9277L71.9553 47.5756ZM67.7467 51.8799L67.3917 51.5279L67.0425 51.8799L67.3917 52.232L67.7467 51.8799ZM71.9553 47.6364L72.3103 47.2843L71.9553 46.9264L71.6003 47.2843L71.9553 47.6364ZM76.164 51.8799L76.519 52.232L76.8682 51.8799L76.519 51.5279L76.164 51.8799ZM71.9553 56.1235L71.6003 56.4756L71.9553 56.8335L72.3103 56.4756L71.9553 56.1235ZM21.0617 47.5801L20.7067 47.228L20.3575 47.5801L20.7067 47.9322L21.0617 47.5801ZM25.2704 43.3366L25.6254 42.9845L25.2704 42.6266L24.9154 42.9845L25.2704 43.3366ZM29.4791 47.5801L29.8341 47.9322L30.1833 47.5801L29.8341 47.228L29.4791 47.5801ZM25.2704 51.8236L24.9154 52.1757L25.2704 52.5337L25.6254 52.1757L25.2704 51.8236ZM72.1016 47.1364C71.8255 47.1364 71.6016 47.3603 71.6016 47.6364C71.6016 47.9126 71.8255 48.1364 72.1016 48.1364L72.1016 47.1364ZM113.677 48.1364C113.953 48.1364 114.177 47.9126 114.177 47.6364C114.177 47.3603 113.953 47.1364 113.677 47.1364L113.677 48.1364ZM92.3892 68.5962C92.3892 68.8724 92.613 69.0962 92.8892 69.0962C93.1653 69.0962 93.3892 68.8724 93.3892 68.5962L92.3892 68.5962ZM93.3892 47.6364C93.3892 47.3603 93.1653 47.1364 92.8892 47.1364C92.613 47.1364 92.3892 47.3603 92.3892 47.6364L93.3892 47.6364ZM50.4657 68.5962C50.4657 68.8724 50.6895 69.0962 50.9657 69.0962C51.2418 69.0962 51.4657 68.8724 51.4657 68.5962L50.4657 68.5962ZM51.4656 26.6767C51.4656 26.4005 51.2418 26.1767 50.9656 26.1767C50.6895 26.1767 50.4656 26.4005 50.4656 26.6767L51.4656 26.6767ZM92.7731 26.3839L90.8688 20.9335L87.1007 25.3078L92.7731 26.3839ZM71.9852 77.4368L71.9852 77.9368L71.9852 77.4368ZM51.1398 68.7719L53.0441 74.2223L56.8122 69.848L51.1398 68.7719ZM72 95.9962L71.9943 96.4961L72 95.9962ZM72.2244 47.9322L93.2464 26.736L92.5364 26.0318L71.5143 47.228L72.2244 47.9322ZM92.5364 26.736L113.559 47.9322L114.269 47.228L93.2464 26.0318L92.5364 26.736ZM113.559 47.228L92.5364 68.4243L93.2464 69.1285L114.269 47.9322L113.559 47.228ZM93.2464 68.4243L72.2244 47.228L71.5143 47.9322L92.5364 69.1285L93.2464 68.4243ZM30.3008 47.9322L51.3229 26.736L50.6129 26.0318L29.5908 47.228L30.3008 47.9322ZM50.6129 26.736L71.635 47.9322L72.345 47.228L51.3229 26.0318L50.6129 26.736ZM71.635 47.228L50.6129 68.4243L51.3229 69.1285L72.345 47.9322L71.635 47.228ZM51.3229 68.4243L30.3008 47.228L29.5908 47.9322L50.6129 69.1285L51.3229 68.4243ZM55.5104 59.0784C60.6905 57.2877 64.4143 52.55 64.4143 46.9631L63.4143 46.9631C63.4143 52.0852 59.9985 56.4689 55.1837 58.1332L55.5104 59.0784ZM64.4143 46.9631C64.4143 39.8254 58.3437 34.0805 50.9076 34.0805L50.9076 35.0805C57.8383 35.0805 63.4143 40.4234 63.4143 46.9631L64.4143 46.9631ZM97.3848 59.1302C102.181 57.2671 105.582 52.58 105.582 47.0942L104.582 47.0942C104.582 52.1575 101.444 56.4807 97.0227 58.1981L97.3848 59.1302ZM105.582 47.0942C105.582 46.971 105.58 46.8482 105.577 46.7258L104.577 46.7536C104.58 46.8668 104.582 46.9803 104.582 47.0942L105.582 47.0942ZM105.577 46.7258C105.386 39.8656 99.874 34.3405 93.0437 34.201L93.0233 35.2008C99.3132 35.3293 104.401 40.4197 104.577 46.7536L105.577 46.7258ZM93.0437 34.201C92.9558 34.1992 92.8676 34.1983 92.7793 34.1983L92.7793 35.1983C92.8608 35.1983 92.9422 35.1992 93.0233 35.2008L93.0437 34.201ZM81.1099 52.4303C83.2313 57.1575 88.0858 60.3185 93.5387 59.9924L93.479 58.9942C88.458 59.2945 83.9806 56.3847 82.0223 52.0209L81.1099 52.4303ZM93.5387 59.9924C95.3098 59.8865 96.9765 59.4224 98.4724 58.6738L98.0249 57.7795C96.6475 58.4688 95.1125 58.8965 93.479 58.9942L93.5387 59.9924ZM98.4724 58.6738C98.5132 58.6535 98.5538 58.6329 98.5943 58.612L98.1372 57.7226C98.0999 57.7418 98.0625 57.7608 98.0249 57.7796L98.4724 58.6738ZM98.5943 58.612C102.885 56.407 105.735 51.8504 105.577 46.7243L104.577 46.7552C104.724 51.4856 102.093 55.6894 98.1372 57.7226L98.5943 58.612ZM105.577 46.7243C105.573 46.6017 105.567 46.4787 105.56 46.3555L104.562 46.4143C104.569 46.5282 104.574 46.6419 104.577 46.7552L105.577 46.7243ZM83.0105 38.7766C78.4342 44.2032 79.0897 52.3396 84.4766 56.9515L85.127 56.1918C80.1583 51.938 79.5521 44.4287 83.7749 39.4213L83.0105 38.7766ZM84.4766 56.9515C88.5006 60.3966 94.026 60.8998 98.4725 58.6738L98.0249 57.7796C93.926 59.8316 88.8353 59.3666 85.127 56.1918L84.4766 56.9515ZM98.5944 58.612C100.056 57.8603 101.398 56.8114 102.525 55.4742L101.761 54.8295C100.72 56.0642 99.4833 57.0305 98.1371 57.7227L98.5944 58.612ZM104.904 43.0168C103.275 38.0951 98.7676 34.4487 93.3096 34.2099L93.2659 35.209C98.2917 35.4288 102.45 38.7867 103.954 43.331L104.904 43.0168ZM93.3096 34.2099C93.2213 34.2061 93.1331 34.2031 93.0452 34.2011L93.0219 35.2008C93.103 35.2027 93.1844 35.2054 93.2659 35.209L93.3096 34.2099ZM93.0452 34.2011C86.0933 34.0392 80.2662 39.5113 79.9636 46.5344L80.9626 46.5775C81.242 40.0926 86.6203 35.0517 93.0219 35.2008L93.0452 34.2011ZM46.3628 34.8479C41.1827 36.6386 37.4589 41.3763 37.4589 46.9631L38.4589 46.9631C38.4589 41.8411 41.8748 37.4574 46.6896 35.7931L46.3628 34.8479ZM37.4589 46.9631C37.4589 54.1009 43.5295 59.8458 50.9657 59.8458L50.9657 58.8458C44.0349 58.8458 38.4589 53.5029 38.4589 46.9631L37.4589 46.9631ZM114.729 47.9322L118.937 43.6887L118.227 42.9845L114.019 47.228L114.729 47.9322ZM118.227 43.6887L122.436 47.9322L123.146 47.228L118.937 42.9845L118.227 43.6887ZM122.436 47.228L118.227 51.4715L118.937 52.1757L123.146 47.9322L122.436 47.228ZM118.937 51.4715L114.729 47.228L114.019 47.9322L118.227 52.1757L118.937 51.4715ZM68.1017 43.6842L72.3103 39.4407L71.6003 38.7365L67.3917 42.98L68.1017 43.6842ZM71.6003 39.4407L75.809 43.6842L76.519 42.98L72.3103 38.7365L71.6003 39.4407ZM75.809 42.98L71.6003 47.2235L72.3103 47.9277L76.519 43.6842L75.809 42.98ZM72.3103 47.2235L68.1017 42.98L67.3917 43.6842L71.6003 47.9277L72.3103 47.2235ZM68.1017 52.232L72.3103 47.9885L71.6003 47.2843L67.3917 51.5279L68.1017 52.232ZM71.6003 47.9885L75.809 52.232L76.519 51.5279L72.3103 47.2843L71.6003 47.9885ZM75.809 51.5279L71.6003 55.7714L72.3103 56.4756L76.519 52.232L75.809 51.5279ZM72.3103 55.7714L68.1017 51.5279L67.3917 52.232L71.6003 56.4756L72.3103 55.7714ZM21.4168 47.9322L25.6254 43.6887L24.9154 42.9845L20.7067 47.228L21.4168 47.9322ZM24.9154 43.6887L29.124 47.9322L29.8341 47.228L25.6254 42.9845L24.9154 43.6887ZM29.124 47.228L24.9154 51.4715L25.6254 52.1757L29.8341 47.9322L29.124 47.228ZM25.6254 51.4715L21.4168 47.228L20.7067 47.9322L24.9154 52.1757L25.6254 51.4715ZM72.1016 48.1364L113.677 48.1364L113.677 47.1364L72.1016 47.1364L72.1016 48.1364ZM93.3892 68.5962L93.3892 47.6364L92.3892 47.6364L92.3892 68.5962L93.3892 68.5962ZM51.4657 68.5962L51.4656 26.6767L50.4656 26.6767L50.4657 68.5962L51.4657 68.5962ZM51.4929 26.6805C56.738 21.4492 63.9574 18.219 71.9277 18.219V17.219C63.6813 17.219 56.2111 20.5624 50.7868 25.9725L51.4929 26.6805ZM71.9277 18.219C78.3395 18.219 84.2645 20.3093 89.067 23.8495L89.6604 23.0446C84.6921 19.3822 78.5606 17.219 71.9277 17.219V18.219ZM92.42 68.4753C87.1749 73.7066 79.9555 76.9368 71.9852 76.9368L71.9852 77.9368C80.2316 77.9368 87.7018 74.5934 93.1261 69.1833L92.42 68.4753ZM71.9852 76.9368C65.5734 76.9368 59.6484 74.8465 54.8459 71.3063L54.2525 72.1112C59.2208 75.7736 65.3523 77.9368 71.9852 77.9368L71.9852 76.9368ZM1 48.7781C1.43582 49.0232 1.43584 49.0231 1.43596 49.0229C1.43614 49.0226 1.43637 49.0222 1.43672 49.0216C1.43744 49.0203 1.43857 49.0183 1.44011 49.0156C1.44319 49.0101 1.44793 49.0018 1.4543 48.9906C1.46706 48.9682 1.4864 48.9344 1.51227 48.8896C1.56402 48.7999 1.64192 48.6661 1.74567 48.4911C1.95315 48.1411 2.26397 47.6264 2.67556 46.9707C3.49877 45.6592 4.72489 43.784 6.33348 41.5342C9.55127 37.0337 14.2962 31.0392 20.4044 25.0617C32.6299 13.0977 50.2584 1.25713 71.9943 1.50379L72.0057 0.503854C49.8874 0.25286 32.0159 12.2994 19.705 24.347C13.5449 30.3753 8.76251 36.4176 5.52002 40.9526C3.89847 43.2205 2.66121 45.1126 1.82859 46.4391C1.41226 47.1023 1.09704 47.6242 0.885467 47.9811C0.77968 48.1596 0.699802 48.2967 0.646151 48.3897C0.619325 48.4362 0.599055 48.4716 0.58538 48.4956C0.578543 48.5076 0.573355 48.5168 0.569821 48.523C0.568054 48.5262 0.5667 48.5286 0.565761 48.5302C0.565291 48.531 0.564897 48.5317 0.564662 48.5322C0.564371 48.5327 0.564185 48.533 1 48.7781ZM71.9943 1.50379C93.7383 1.75053 111.372 13.5965 123.597 25.4367C129.706 31.3527 134.451 37.2546 137.669 41.6775C139.278 43.8886 140.504 45.7289 141.327 47.0152C141.738 47.6583 142.049 48.1628 142.257 48.5058C142.36 48.6773 142.438 48.8084 142.49 48.8962C142.516 48.9401 142.535 48.9732 142.548 48.9952C142.554 49.0061 142.559 49.0143 142.562 49.0196C142.564 49.0223 142.565 49.0243 142.565 49.0255C142.566 49.0261 142.566 49.0265 142.566 49.0268C142.566 49.027 142.566 49.0271 143 48.7781C143.434 48.5291 143.433 48.5288 143.433 48.5283C143.433 48.5279 143.432 48.5272 143.432 48.5264C143.431 48.5247 143.43 48.5224 143.428 48.5193C143.424 48.5132 143.419 48.5042 143.412 48.4925C143.399 48.469 143.378 48.4342 143.352 48.3887C143.298 48.2976 143.218 48.1631 143.112 47.9882C142.901 47.6384 142.585 47.1268 142.169 46.4762C141.336 45.1751 140.099 43.3181 138.478 41.0892C135.235 36.6322 130.453 30.6838 124.293 24.7184C111.983 12.796 94.116 0.754757 72.0057 0.503854L71.9943 1.50379ZM143 48.2219C142.564 47.9768 142.564 47.9769 142.564 47.9771C142.564 47.9774 142.564 47.9778 142.563 47.9784C142.563 47.9797 142.561 47.9817 142.56 47.9844C142.557 47.9899 142.552 47.9982 142.546 48.0094C142.533 48.0318 142.514 48.0656 142.488 48.1105C142.436 48.2001 142.358 48.3339 142.254 48.5089C142.047 48.8589 141.736 49.3736 141.324 50.0293C140.501 51.3408 139.275 53.216 137.667 55.4658C134.449 59.9663 129.704 65.9608 123.596 71.9383C111.37 83.9023 93.7416 95.7429 72.0057 95.4962L71.9943 96.4961C94.1126 96.7471 111.984 84.7006 124.295 72.653C130.455 66.6247 135.237 60.5824 138.48 56.0474C140.102 53.7795 141.339 51.8874 142.171 50.5609C142.588 49.8977 142.903 49.3758 143.115 49.0189C143.22 48.8404 143.3 48.7033 143.354 48.6103C143.381 48.5638 143.401 48.5284 143.415 48.5044C143.421 48.4924 143.427 48.4832 143.43 48.477C143.432 48.4739 143.433 48.4715 143.434 48.4698C143.435 48.469 143.435 48.4683 143.435 48.4678C143.436 48.4673 143.436 48.467 143 48.2219ZM72.0057 95.4962C50.2617 95.2495 32.6283 83.4035 20.4025 71.5632C14.2939 65.6473 9.54882 59.7454 6.33107 55.3225C4.7225 53.1114 3.4964 51.2711 2.67322 49.9848C2.26165 49.3417 1.95085 48.8371 1.74339 48.4942C1.63966 48.3227 1.56177 48.1916 1.51003 48.1038C1.48416 48.0598 1.46483 48.0267 1.45208 48.0048C1.4457 47.9939 1.44097 47.9857 1.43789 47.9804C1.43635 47.9777 1.43523 47.9757 1.43451 47.9745C1.43416 47.9739 1.43393 47.9735 1.43375 47.9732C1.43363 47.973 1.43361 47.9729 1 48.2219C0.566399 48.4709 0.566587 48.4712 0.566879 48.4717C0.567114 48.4721 0.567509 48.4728 0.56798 48.4736C0.568921 48.4753 0.570276 48.4776 0.572045 48.4807C0.575582 48.4868 0.580773 48.4957 0.587613 48.5075C0.601293 48.531 0.621569 48.5658 0.648401 48.6113C0.702064 48.7024 0.781954 48.8368 0.887751 49.0117C1.09934 49.3615 1.41459 49.8732 1.83093 50.5238C2.6636 51.8249 3.90087 53.6819 5.52243 55.9108C8.76497 60.3678 13.5472 66.3162 19.7068 72.2816C32.0175 84.204 49.884 96.2452 71.9943 96.4961L72.0057 95.4962Z" fill="white"/>
</svg>
