<svg width="91" height="101" viewBox="0 0 91 101" fill="none" xmlns="http://www.w3.org/2000/svg">
<path d="M42.7884 0V15.9681H48.2121V0H42.7879H42.7884ZM20.6411 4.79867L16.1974 7.90998L25.3548 20.987L29.7961 17.8756L20.6411 4.79867ZM70.3583 4.79867L61.2036 17.8757L65.6455 20.9871L74.8027 7.90998L70.359 4.79867H70.3583ZM45.4991 20.3371C32.2308 20.3371 21.4749 28.3943 21.4749 38.3347L35.1244 79.6714H55.8762L69.5245 38.3347C69.5245 28.3944 58.7693 20.3371 45.5004 20.3371H45.4991ZM2.35314 25.1294L0.5 30.229L15.4976 35.6892L17.3576 30.5921L2.3528 25.1294H2.35314ZM88.6463 25.1294L73.6414 30.5925L75.4951 35.6903L90.5 30.2291L88.6463 25.1294ZM16.6331 48.4421L1.21194 52.5784L2.61116 57.8136L18.0323 53.6833L16.6333 48.4421H16.6331ZM74.3663 48.4421L72.9681 53.6832L88.3893 57.8128L89.7875 52.5775L74.3663 48.4419V48.4421ZM34.8218 82.6848V89.8701H56.1789V82.6859H34.8219L34.8218 82.6848ZM34.8218 93.442V100.627H56.1789V93.4432H34.8219L34.8218 93.442Z" fill="#E18700"/>
</svg>
