<svg width="91" height="94" viewBox="0 0 91 94" fill="none" xmlns="http://www.w3.org/2000/svg">
<path d="M41.8262 0.710298C39.5231 0.944196 37.7286 2.89207 37.7286 5.25692C37.7286 7.77943 39.7808 9.83161 42.3033 9.83161C44.8258 9.83161 46.878 7.77943 46.878 5.25692C46.878 2.73441 44.8258 0.710298 42.3033 0.710298C42.1457 0.710298 41.9797 0.694707 41.8262 0.710298ZM26.6427 3.74138C23.6397 3.74138 21.198 6.18312 21.198 9.1861C21.198 12.1891 23.6397 14.6308 26.6427 14.6308C29.6457 14.6308 32.0874 12.1891 32.0874 9.1861C32.0874 6.18312 29.6457 3.74138 26.6427 3.74138ZM55.7748 7.16538C53.973 7.16538 52.5192 8.61919 52.5192 10.421C52.5192 12.2228 53.973 13.7047 55.7748 13.7047C57.5766 13.7047 59.0585 12.2228 59.0585 10.421C59.0585 8.61919 57.5766 7.16538 55.7748 7.16538ZM17.5214 17.9426C15.9178 17.9426 14.6026 19.2297 14.6026 20.8333C14.6026 22.437 15.9178 23.7521 17.5214 23.7521C19.125 23.7521 20.4122 22.437 20.4122 20.8333C20.4122 19.2297 19.125 17.9426 17.5214 17.9426ZM61.865 18.4477C60.5437 18.4477 59.4795 19.512 59.4795 20.8333C59.4795 22.1546 60.5437 23.247 61.865 23.247C63.1863 23.247 64.2787 22.1546 64.2787 20.8333C64.2787 19.512 63.1863 18.4477 61.865 18.4477ZM73.5964 26.1096C65.6886 26.0549 58.545 31.5737 56.8413 39.6092C60.2671 43.7747 52.0779 51.2498 53.6418 53.6981C55.9868 57.3693 59.7633 54.9675 59.2549 57.9079C58.8686 60.1423 58.9938 62.2226 60.9108 63.493C59.5447 67.6334 64.3403 71.454 66.6362 71.9407C75.8197 73.8878 88.18 55.8371 90.1271 46.6537C92.0742 37.4702 86.2039 28.4497 77.0204 26.5026C75.8725 26.2592 74.7261 26.1175 73.5964 26.1096ZM23.1065 31.6947C22.78 31.701 22.4517 31.7289 22.1242 31.7508C22.1053 31.7521 22.0869 31.7495 22.068 31.7508C7.72171 32.0036 -3.35837 47.914 1.77662 61.5565C6.43102 73.8342 14.061 86.4436 26.1375 92.7935C26.1447 92.7971 26.1585 92.7899 26.1656 92.7935C26.1765 92.7998 26.1828 92.815 26.1937 92.8215C32.786 96.7639 41.8601 89.4011 39.581 82.2969C40.3941 81.8659 41.0719 81.3224 41.4613 80.641C41.9688 79.7533 42.107 78.7665 42.163 77.8064C42.2714 75.9453 42.0626 74.1052 42.4156 72.8388C42.6968 72.4132 43.1398 72.1085 43.8189 71.8846C44.5292 71.6503 45.4144 71.5131 46.3167 71.3232C47.219 71.1334 48.1474 70.9185 48.9268 70.3129C49.7062 69.7073 50.2007 68.6414 50.1336 67.366V67.2257L50.0775 67.0854C48.8054 64.0733 46.7958 61.0178 45.5309 57.9921C44.2659 54.9664 43.7207 52.0888 45.1099 49.1234L45.2502 48.8147L45.166 48.5059C42.7091 38.7526 33.2271 31.4987 23.1065 31.6947V31.6947Z" fill="#E18700"/>
</svg>
