<svg width="91" height="97" viewBox="0 0 91 97" fill="none" xmlns="http://www.w3.org/2000/svg">
<path d="M18.7501 85.9209C16.6882 85.8829 14.7238 85.036 13.2806 83.5628C11.8375 82.0896 11.0312 80.1081 11.0358 78.0458V23.4026H8.46436C6.40241 23.4405 4.438 24.2875 2.99485 25.7607C1.5517 27.2339 0.745453 29.2154 0.750019 31.2776V88.1709C0.745453 90.2332 1.5517 92.2146 2.99485 93.6879C4.438 95.1611 6.40241 96.008 8.46436 96.046H65.679C67.741 96.008 69.7054 95.1611 71.1486 93.6879C72.5917 92.2146 73.398 90.2332 73.3934 88.1709V85.9209H18.7501Z" fill="#E18700"/>
<path d="M39.9678 16.3314H68.5751C68.914 16.3357 69.2503 16.2722 69.5643 16.1445C69.8782 16.0168 70.1634 15.8275 70.403 15.5879C70.6427 15.3482 70.8319 15.063 70.9596 14.7491C71.0873 14.4352 71.1509 14.0988 71.1466 13.76V8.45635C71.1423 6.36906 70.3113 4.36848 68.8353 2.89254C67.3594 1.4166 65.3588 0.585546 63.2715 0.581299H45.1107C43.0234 0.585546 41.0228 1.4166 39.5469 2.89254C38.0709 4.36848 37.2399 6.36906 37.2356 8.45635V13.76C37.2877 14.4523 37.597 15.1001 38.1026 15.576C38.6082 16.0519 39.2735 16.3213 39.9678 16.3314ZM82.8788 7.17063H80.3074C80.1348 7.15597 79.9611 7.17916 79.7985 7.23859C79.6358 7.29802 79.4881 7.39225 79.3657 7.5147C79.2432 7.63714 79.149 7.78485 79.0896 7.9475C79.0302 8.11015 79.007 8.28381 79.0216 8.45635V13.76C79.0345 16.5493 77.9431 19.2305 75.9859 21.2179C74.0286 23.2053 71.3644 24.3375 68.5751 24.3672H39.9678C37.1785 24.3375 34.5144 23.2053 32.5571 21.2179C30.5998 19.2305 29.5084 16.5493 29.5213 13.76V8.45635C29.5359 8.28381 29.5128 8.11015 29.4533 7.9475C29.3939 7.78485 29.2997 7.63714 29.1772 7.5147C29.0548 7.39225 28.9071 7.29802 28.7444 7.23859C28.5818 7.17916 28.4081 7.15597 28.2356 7.17063H25.6641C23.5768 7.17488 21.5762 8.00593 20.1003 9.48187C18.6244 10.9578 17.7933 12.9584 17.7891 15.0457V71.7782C17.7933 73.8655 18.6244 75.8661 20.1003 77.342C21.5762 78.818 23.5768 79.649 25.6641 79.6533H82.8788C84.9661 79.649 86.9667 78.818 88.4426 77.342C89.9185 75.8661 90.7496 73.8655 90.7539 71.7782V15.0457C90.7496 12.9584 89.9185 10.9578 88.4426 9.48187C86.9667 8.00593 84.9661 7.17488 82.8788 7.17063ZM39.9678 63.9032C39.9721 64.2421 39.9085 64.5784 39.7808 64.8923C39.6531 65.2062 39.4639 65.4914 39.2242 65.7311C38.9846 65.9707 38.6994 66.16 38.3855 66.2877C38.0715 66.4154 37.7352 66.4789 37.3963 66.4746H34.8249C34.486 66.4789 34.1497 66.4154 33.8358 66.2877C33.5218 66.16 33.2366 65.9707 32.997 65.7311C32.7573 65.4914 32.5681 65.2062 32.4404 64.8923C32.3127 64.5784 32.2491 64.2421 32.2534 63.9032V61.3317C32.2491 60.9928 32.3127 60.6565 32.4404 60.3426C32.5681 60.0287 32.7573 59.7435 32.997 59.5038C33.2366 59.2642 33.5218 59.0749 33.8358 58.9472C34.1497 58.8195 34.486 58.756 34.8249 58.7603H37.3963C37.7352 58.756 38.0715 58.8195 38.3855 58.9472C38.6994 59.0749 38.9846 59.2642 39.2242 59.5038C39.4639 59.7435 39.6531 60.0287 39.7808 60.3426C39.9085 60.6565 39.9721 60.9928 39.9678 61.3317V63.9032ZM39.9678 50.7245C39.9721 51.0634 39.9085 51.3997 39.7808 51.7136C39.6531 52.0276 39.4639 52.3128 39.2242 52.5524C38.9846 52.7921 38.6994 52.9813 38.3855 53.109C38.0715 53.2367 37.7352 53.3003 37.3963 53.296H34.8249C34.486 53.3003 34.1497 53.2367 33.8358 53.109C33.5218 52.9813 33.2366 52.7921 32.997 52.5524C32.7573 52.3128 32.5681 52.0276 32.4404 51.7136C32.3127 51.3997 32.2491 51.0634 32.2534 50.7245V48.1531C32.2491 47.8142 32.3127 47.4779 32.4404 47.1639C32.5681 46.85 32.7573 46.5648 32.997 46.3252C33.2366 46.0855 33.5218 45.8963 33.8358 45.7686C34.1497 45.6409 34.486 45.5773 34.8249 45.5816H37.3963C37.7352 45.5773 38.0715 45.6409 38.3855 45.7686C38.6994 45.8963 38.9846 46.0855 39.2242 46.3252C39.4639 46.5648 39.6531 46.85 39.7808 47.1639C39.9085 47.4779 39.9721 47.8142 39.9678 48.1531V50.7245ZM39.9678 37.5458C39.9721 37.8847 39.9085 38.221 39.7808 38.535C39.6531 38.8489 39.4639 39.1341 39.2242 39.3738C38.9846 39.6134 38.6994 39.8026 38.3855 39.9303C38.0715 40.058 37.7352 40.1216 37.3963 40.1173H34.8249C34.486 40.1216 34.1497 40.058 33.8358 39.9303C33.5218 39.8026 33.2366 39.6134 32.997 39.3738C32.7573 39.1341 32.5681 38.8489 32.4404 38.535C32.3127 38.221 32.2491 37.8847 32.2534 37.5458V34.9744C32.2491 34.6355 32.3127 34.2992 32.4404 33.9853C32.5681 33.6713 32.7573 33.3861 32.997 33.1465C33.2366 32.9068 33.5218 32.7176 33.8358 32.5899C34.1497 32.4622 34.486 32.3986 34.8249 32.403H37.3963C37.7352 32.3986 38.0715 32.4622 38.3855 32.5899C38.6994 32.7176 38.9846 32.9068 39.2242 33.1465C39.4639 33.3861 39.6531 33.6713 39.7808 33.9853C39.9085 34.2992 39.9721 34.6355 39.9678 34.9744V37.5458ZM76.4502 63.9032C76.4545 64.2421 76.3909 64.5784 76.2632 64.8923C76.1355 65.2062 75.9463 65.4914 75.7066 65.7311C75.467 65.9707 75.1818 66.16 74.8679 66.2877C74.5539 66.4154 74.2176 66.4789 73.8787 66.4746H47.8428C47.504 66.4789 47.1676 66.4154 46.8537 66.2877C46.5398 66.16 46.2546 65.9707 46.0149 65.7311C45.7753 65.4914 45.586 65.2062 45.4583 64.8923C45.3306 64.5784 45.2671 64.2421 45.2714 63.9032V61.3317C45.2671 60.9928 45.3306 60.6565 45.4583 60.3426C45.586 60.0287 45.7753 59.7435 46.0149 59.5038C46.2546 59.2642 46.5398 59.0749 46.8537 58.9472C47.1676 58.8195 47.504 58.756 47.8428 58.7603H73.8787C74.2176 58.756 74.5539 58.8195 74.8679 58.9472C75.1818 59.0749 75.467 59.2642 75.7066 59.5038C75.9463 59.7435 76.1355 60.0287 76.2632 60.3426C76.3909 60.6565 76.4545 60.9928 76.4502 61.3317V63.9032ZM76.4502 50.7245C76.4545 51.0634 76.3909 51.3997 76.2632 51.7136C76.1355 52.0276 75.9463 52.3128 75.7066 52.5524C75.467 52.7921 75.1818 52.9813 74.8679 53.109C74.5539 53.2367 74.2176 53.3003 73.8787 53.296H47.8428C47.504 53.3003 47.1676 53.2367 46.8537 53.109C46.5398 52.9813 46.2546 52.7921 46.0149 52.5524C45.7753 52.3128 45.586 52.0276 45.4583 51.7136C45.3306 51.3997 45.2671 51.0634 45.2714 50.7245V48.1531C45.2671 47.8142 45.3306 47.4779 45.4583 47.1639C45.586 46.85 45.7753 46.5648 46.0149 46.3252C46.2546 46.0855 46.5398 45.8963 46.8537 45.7686C47.1676 45.6409 47.504 45.5773 47.8428 45.5816H73.8787C74.2176 45.5773 74.5539 45.6409 74.8679 45.7686C75.1818 45.8963 75.467 46.0855 75.7066 46.3252C75.9463 46.5648 76.1355 46.85 76.2632 47.1639C76.3909 47.4779 76.4545 47.8142 76.4502 48.1531V50.7245ZM76.4502 37.5458C76.4545 37.8847 76.3909 38.221 76.2632 38.535C76.1355 38.8489 75.9463 39.1341 75.7066 39.3738C75.467 39.6134 75.1818 39.8026 74.8679 39.9303C74.5539 40.058 74.2176 40.1216 73.8787 40.1173H47.8428C47.504 40.1216 47.1676 40.058 46.8537 39.9303C46.5398 39.8026 46.2546 39.6134 46.0149 39.3738C45.7753 39.1341 45.586 38.8489 45.4583 38.535C45.3306 38.221 45.2671 37.8847 45.2714 37.5458V34.9744C45.2671 34.6355 45.3306 34.2992 45.4583 33.9853C45.586 33.6713 45.7753 33.3861 46.0149 33.1465C46.2546 32.9068 46.5398 32.7176 46.8537 32.5899C47.1676 32.4622 47.504 32.3986 47.8428 32.403H73.8787C74.2176 32.3986 74.5539 32.4622 74.8679 32.5899C75.1818 32.7176 75.467 32.9068 75.7066 33.1465C75.9463 33.3861 76.1355 33.6713 76.2632 33.9853C76.3909 34.2992 76.4545 34.6355 76.4502 34.9744V37.5458Z" fill="#E18700"/>
</svg>
