<svg width="91" height="83" viewBox="0 0 91 83" fill="none" xmlns="http://www.w3.org/2000/svg">
<path d="M65.7045 16.7682V58.8196L71.8409 65.0012L77.9773 58.8196V16.7682H65.7045ZM65.7045 12.6773H77.9773V4.55566H65.7045V12.6773ZM82.0682 20.8591V59.6625C82.0682 60.2024 81.8547 60.7204 81.4744 61.1035L73.2926 69.3456C72.4926 70.1515 71.1893 70.1515 70.3893 69.3456L62.2074 61.1035C61.8271 60.7204 61.6136 60.2024 61.6136 59.6625V49.4954H59.5682C56.1792 49.4954 53.4318 46.7481 53.4318 43.3591V31.0864C53.4318 27.6973 56.1792 24.95 59.5682 24.95H61.6136V20.8591H20.7045V51.5409C20.7045 52.6706 19.7888 53.5864 18.6591 53.5864H16.6136C9.8356 53.5864 4.34091 59.081 4.34091 65.8591C4.34091 72.6371 9.8356 78.1318 16.6136 78.1318H86.1591V20.8591H82.0682ZM82.0682 16.7682H88.2045C89.3342 16.7682 90.25 17.684 90.25 18.8136V80.1773C90.25 81.3069 89.3342 82.2227 88.2045 82.2227H16.6136C7.57625 82.2227 0.25 74.8965 0.25 65.8591V18.8136C0.25 8.64657 8.49203 0.404541 18.6591 0.404541C19.7888 0.404541 20.7045 1.32032 20.7045 2.45V16.7682H61.6136V2.51021C61.6136 1.38053 62.5294 0.464753 63.6591 0.464753H80.0227C81.1524 0.464753 82.0682 1.38053 82.0682 2.51021V16.7682ZM61.6136 29.0409H59.5682C58.4385 29.0409 57.5227 29.9567 57.5227 31.0864V43.3591C57.5227 44.4888 58.4385 45.4045 59.5682 45.4045H61.6136V29.0409ZM4.34091 55.0353C7.33932 51.6381 11.7263 49.4954 16.6136 49.4954V4.64045C9.67485 5.63297 4.34091 11.6004 4.34091 18.8136V55.0353ZM30.9318 24.95H43.2045C46.5936 24.95 49.3409 27.6973 49.3409 31.0864V43.3591C49.3409 46.7481 46.5936 49.4954 43.2045 49.4954H30.9318C27.5428 49.4954 24.7955 46.7481 24.7955 43.3591V31.0864C24.7955 27.6973 27.5428 24.95 30.9318 24.95ZM30.9318 29.0409C29.8021 29.0409 28.8864 29.9567 28.8864 31.0864V43.3591C28.8864 44.4888 29.8021 45.4045 30.9318 45.4045H43.2045C44.3342 45.4045 45.25 44.4888 45.25 43.3591V31.0864C45.25 29.9567 44.3342 29.0409 43.2045 29.0409H30.9318ZM26.8409 61.7682C25.7112 61.7682 24.7955 60.8524 24.7955 59.7227C24.7955 58.593 25.7112 57.6773 26.8409 57.6773H55.4773C56.6069 57.6773 57.5227 58.593 57.5227 59.7227C57.5227 60.8524 56.6069 61.7682 55.4773 61.7682H26.8409ZM26.8409 69.95C25.7112 69.95 24.7955 69.0342 24.7955 67.9045C24.7955 66.7749 25.7112 65.8591 26.8409 65.8591H59.5682C60.6979 65.8591 61.6136 66.7749 61.6136 67.9045C61.6136 69.0342 60.6979 69.95 59.5682 69.95H26.8409Z" fill="#E18700"/>
</svg>
